<svg width="16" height="16" viewBox="0 0 16 16" fill="none" xmlns="http://www.w3.org/2000/svg">
<path d="M0.5 8C0.5 9.98912 1.29018 11.8968 2.6967 13.3033C4.10322 14.7098 6.01088 15.5 8 15.5C9.98912 15.5 11.8968 14.7098 13.3033 13.3033C14.7098 11.8968 15.5 9.98912 15.5 8C15.5 6.01088 14.7098 4.10322 13.3033 2.6967C11.8968 1.29018 9.98912 0.5 8 0.5C6.01088 0.5 4.10322 1.29018 2.6967 2.6967C1.29018 4.10322 0.5 6.01088 0.5 8V8Z" stroke="#030B5D" stroke-linecap="round" stroke-linejoin="round"/>
<path d="M6.19267 15.2806C5.178 13.7926 4.5 11.0886 4.5 7.9999C4.5 4.91124 5.178 2.20724 6.19267 0.719238" stroke="#030B5D" stroke-linecap="round" stroke-linejoin="round"/>
<path d="M0.5 8H15.5" stroke="#030B5D" stroke-linecap="round" stroke-linejoin="round"/>
<path d="M1.65466 12H14.3453" stroke="#030B5D" stroke-linecap="round" stroke-linejoin="round"/>
<path d="M2 4H14" stroke="#030B5D" stroke-linecap="round" stroke-linejoin="round"/>
<path d="M9.80737 0.719238C10.822 2.20724 11.5 4.91124 11.5 7.9999C11.5 11.0886 10.822 13.7926 9.80737 15.2806" stroke="#030B5D" stroke-linecap="round" stroke-linejoin="round"/>
</svg>
