<svg width="224" height="41" viewBox="0 0 224 41" fill="none" xmlns="http://www.w3.org/2000/svg">
<g clip-path="url(#clip0_0_382)">
<path d="M20.4565 5.50544L25.051 0.88623C27.6315 1.58228 30.0232 2.84781 32.1002 4.49301L28.3238 8.28962L24.7992 11.8331L11.2674 25.4376C8.93862 21.5145 9.50507 16.5156 12.715 13.2885L20.4565 5.50544Z" fill="#001541"/>
<path d="M8.05877 28.9437L4.28244 32.7403C1.70195 29.4499 0.191416 25.4002 0.0025993 21.1607C-0.437973 10.024 8.12171 0.595769 19.199 0.152832L9.63225 9.77089C4.47126 14.9596 3.84187 23.059 8.05877 28.9437Z" fill="#001541"/>
<path d="M39.778 19.4896C40.2815 30.6263 31.6589 39.9913 20.6445 40.4975L30.2113 30.8162C35.3723 25.6907 36.0017 17.528 31.7847 11.6433L35.5611 7.84668C38.1416 11.2004 39.6521 15.2501 39.778 19.4896Z" fill="#001541"/>
<path d="M26.9399 27.399L19.1984 35.182L14.6668 39.8012C12.0863 39.1052 9.63167 37.8396 7.55469 36.1944L28.4504 15.1865C30.7792 19.1097 30.2127 24.1718 26.9399 27.399Z" fill="#001541"/>
<path d="M60.7357 36.891L61.9315 34.8661C62.1204 34.4864 62.6239 34.3599 62.9386 34.5497L63.0015 34.613C63.1903 34.7396 65.8338 36.6379 67.9737 36.6379C69.673 36.6379 70.9948 35.4989 70.9948 34.1068C70.9948 32.3983 69.5472 31.2593 66.7778 30.1203C63.6938 28.8548 60.5469 26.8932 60.5469 22.9701C60.5469 19.9961 62.7497 16.5791 67.9737 16.5791C70.3654 16.6424 72.6312 17.4017 74.5823 18.7938C74.897 19.0469 75.0229 19.5531 74.7711 19.8695L73.5123 21.7678C73.2606 22.1475 72.7571 22.4006 72.3165 22.1475C72.0647 21.9576 69.5472 20.3124 67.7219 20.3124C65.8338 20.3124 64.8267 21.578 64.8267 22.6537C64.8267 24.2356 66.0226 25.248 68.729 26.387C71.9389 27.6525 75.6523 29.6141 75.6523 33.917C75.6523 37.3339 72.6941 40.4977 68.0366 40.4977C63.8826 40.4977 61.428 38.5362 60.7986 37.9034C60.6098 37.587 60.4839 37.3972 60.7357 36.891ZM89.8765 39.5486C89.8765 39.865 90.1912 40.1814 90.5059 40.1814H93.5899C93.9046 40.1814 94.2193 39.865 94.2193 39.5486V17.5283C94.2193 17.2119 93.9046 16.8955 93.5899 16.8955H90.5059C90.1912 16.8955 89.8765 17.2119 89.8765 17.5283V39.5486ZM108.632 28.3486C108.506 34.9294 113.73 40.3712 120.276 40.4977C123.171 40.4977 125.941 39.7384 128.458 38.3463C128.647 38.2198 128.71 38.03 128.71 37.8401V29.2977C128.71 28.9814 128.458 28.665 128.143 28.665H121.787C121.787 28.665 121.787 28.665 121.724 28.665C121.409 28.665 121.157 28.9814 121.157 29.2977V31.9554C121.157 32.2718 121.472 32.5249 121.787 32.5249H124.43V35.3723C123.171 35.8785 121.85 36.1949 120.528 36.1949C116.374 36.1949 113.101 32.7147 113.101 28.6017C113.101 24.4887 116.374 20.8819 120.528 20.8819C122.353 20.8819 124.115 21.578 125.5 22.7802L125.563 22.8435C125.815 23.0333 126.129 23.0333 126.381 22.7802L128.395 20.6288C128.647 20.3757 128.584 19.9328 128.332 19.7429C126.066 17.7814 123.234 16.7057 120.276 16.6424C113.919 16.7057 108.758 21.8944 108.632 28.3486ZM143.501 39.5486C143.501 39.865 143.815 40.1814 144.13 40.1814H147.151C147.529 40.1814 147.78 39.9283 147.78 39.5486V25.248H147.843L161.627 40.4977H162.445C162.76 40.4977 163.075 40.2446 163.075 39.9283V17.5283C163.075 17.2119 162.76 16.8955 162.445 16.8955H159.424C159.109 16.8955 158.795 17.1486 158.795 17.5283V31.2593H158.732L145.011 16.5791H144.13C143.815 16.5791 143.501 16.8322 143.501 17.1486V39.5486ZM197.817 39.4853L187.684 17.1486C187.621 16.8955 187.369 16.7689 187.117 16.7689H186.803C186.551 16.7689 186.362 16.8955 186.236 17.1486L175.977 39.4853C175.914 39.6119 175.914 39.6751 175.914 39.8017C175.914 40.1181 176.229 40.3712 176.544 40.3079H179.439C179.879 40.3079 180.257 40.0548 180.383 39.6751L181.893 36.0684H191.775L193.411 39.6751C193.663 40.1181 193.852 40.3079 194.355 40.3079H197.251C197.376 40.3079 197.502 40.3079 197.565 40.2446C197.817 40.1181 197.943 39.7384 197.817 39.4853ZM183.53 32.3983L186.74 25.1215H186.866L190.138 32.3983H183.53ZM210.72 39.5486C210.72 39.9283 210.971 40.1814 211.349 40.1814H223.433C223.811 40.1814 224.063 39.9283 224.063 39.5486V36.8277C224.063 36.448 223.811 36.1949 223.433 36.1949H214.999V17.5283C214.999 17.2119 214.685 16.8955 214.37 16.8955H211.349C211.034 16.8955 210.72 17.1486 210.72 17.5283V39.5486Z" fill="#001541"/>
<path d="M63.8177 2.06216H61.9295C61.8036 2.06216 61.6777 1.93561 61.6777 1.80906V0.353693C61.6777 0.227139 61.8036 0.100586 61.9295 0.100586H67.8458C67.9717 0.100586 68.0976 0.227139 68.0976 0.353693V1.80906C68.0976 1.93561 67.9717 2.06216 67.8458 2.06216H65.9576V9.21243C65.9576 9.33899 65.8317 9.46554 65.7059 9.46554H64.1324C64.0065 9.46554 63.8806 9.33899 63.8806 9.21243V2.06216H63.8177Z" fill="#001541"/>
<path d="M73.1941 0.442161C73.1312 0.252331 73.257 0.125777 73.4459 0.125777H75.0193C75.1452 0.125777 75.2082 0.189054 75.2711 0.315608L76.404 4.87154H76.4669L78.5439 0.189054C78.6069 0.125777 78.6698 0.0625 78.7957 0.0625H79.0474C79.1733 0.0625 79.2363 0.125777 79.2992 0.189054L81.3762 4.87154H81.4391L82.572 0.315608C82.572 0.252331 82.6979 0.125777 82.8238 0.125777H84.3973C84.5861 0.125777 84.712 0.252331 84.649 0.442161L82.1315 9.42748C82.1315 9.55403 82.0056 9.61731 81.8797 9.61731H81.6909C81.628 9.61731 81.5021 9.55403 81.4391 9.49075L78.9845 4.04894H78.9216L76.5299 9.49075C76.4669 9.55403 76.404 9.61731 76.2781 9.61731H76.0893C75.9634 9.61731 75.9005 9.55403 75.8376 9.42748L73.1941 0.442161Z" fill="#001541"/>
<path d="M90.5684 0.380061C90.5684 0.253507 90.6942 0.126953 90.8201 0.126953H92.3936C92.5195 0.126953 92.6453 0.253507 92.6453 0.380061V9.23882C92.6453 9.36538 92.5195 9.49193 92.3936 9.49193H90.8201C90.6942 9.49193 90.5684 9.36538 90.5684 9.23882V0.380061Z" fill="#001541"/>
<path d="M99.6313 0.380061C99.6313 0.253507 99.7572 0.126953 99.8831 0.126953H101.457C101.582 0.126953 101.708 0.253507 101.708 0.380061V7.53035H104.855C104.981 7.53035 105.107 7.6569 105.107 7.78346V9.23882C105.107 9.36538 104.981 9.49193 104.855 9.49193H99.8201C99.6942 9.49193 99.5684 9.36538 99.5684 9.23882V0.380061H99.6313Z" fill="#001541"/>
<path d="M111.088 0.380061C111.088 0.253507 111.214 0.126953 111.34 0.126953H112.913C113.039 0.126953 113.165 0.253507 113.165 0.380061V9.23882C113.165 9.36538 113.039 9.49193 112.913 9.49193H111.34C111.214 9.49193 111.088 9.36538 111.088 9.23882V0.380061Z" fill="#001541"/>
<path d="M124.236 0C126.88 0 129.02 2.15141 129.02 4.80904C129.02 7.46667 126.88 9.61809 124.236 9.61809C121.593 9.61809 119.453 7.46667 119.453 4.80904C119.453 2.15141 121.593 0 124.236 0ZM124.236 7.46667C125.684 7.46667 126.88 6.26441 126.88 4.80904C126.88 3.35367 125.684 2.15141 124.236 2.15141C122.789 2.15141 121.593 3.35367 121.593 4.80904C121.593 6.26441 122.789 7.46667 124.236 7.46667Z" fill="#001541"/>
</g>
<defs>
<clipPath id="clip0_0_382">
<rect width="224" height="40.4972" fill="white"/>
</clipPath>
</defs>
</svg>
