<svg width="376" height="379" viewBox="0 0 376 379" fill="none" xmlns="http://www.w3.org/2000/svg">
<mask id="mask0_0_1348" style="mask-type:alpha" maskUnits="userSpaceOnUse" x="0" y="0" width="376" height="379">
<rect x="375.338" y="378.55" width="375.338" height="378" transform="rotate(-180 375.338 378.55)" fill="#C4C4C4"/>
</mask>
<g mask="url(#mask0_0_1348)">
<path d="M15.0191 215.148C0.592802 120.624 65.5246 32.3031 160.048 17.8768C254.572 3.4505 342.893 68.3823 357.32 162.906C371.746 257.43 306.814 345.751 212.29 360.177C117.767 374.604 29.4454 309.672 15.0191 215.148ZM326.325 167.636C314.512 90.2303 242.185 37.0573 164.779 48.871C87.3726 60.6848 34.1996 133.012 46.0133 210.418C57.8271 287.824 130.154 340.997 207.56 329.183C284.966 317.369 338.139 245.042 326.325 167.636Z" fill="#E1E3EA"/>
<path d="M186.167 360.525C91.4504 360.525 14.6672 283.742 14.6672 189.025C14.6672 94.3079 91.4504 17.5248 186.167 17.5248C280.884 17.5248 357.667 94.3079 357.667 189.025C357.667 283.742 280.884 360.525 186.167 360.525ZM186.167 45.5245C106.914 45.5245 42.6669 109.772 42.6669 189.025C42.6669 268.278 106.914 332.525 186.167 332.525C265.42 332.525 329.668 268.278 329.668 189.025C329.668 109.772 265.42 45.5245 186.167 45.5245Z" fill="#E1E3EA" fill-opacity="0.28"/>
<path d="M314.335 302.983C294.534 325.253 269.271 341.979 241.038 351.513C212.804 361.047 182.573 363.06 153.324 357.352C124.076 351.645 96.8194 338.415 74.241 318.966C51.6625 299.517 34.5415 274.521 24.5653 246.44C14.5891 218.36 12.1019 188.164 17.349 158.83C22.5961 129.495 35.3963 102.034 54.4882 79.1532C73.58 56.2721 98.3044 38.7605 126.225 28.3445C154.145 17.9284 184.298 14.9673 213.711 19.7529L209.215 47.3893C184.604 43.3849 159.374 45.8626 136.012 54.5781C112.65 63.2936 91.9618 77.9461 75.987 97.0916C60.0121 116.237 49.3017 139.215 44.9113 163.76C40.5208 188.305 42.6019 213.571 50.9494 237.067C59.2969 260.563 73.6227 281.478 92.5148 297.752C111.407 314.026 134.214 325.096 158.687 329.871C183.16 334.646 208.455 332.962 232.08 324.985C255.704 317.008 276.842 303.012 293.41 284.378L314.335 302.983Z" fill="url(#paint0_linear_0_1348)"/>
<path d="M343.94 121.801C356.698 151.74 360.674 184.691 355.404 216.805C350.134 248.92 335.835 278.872 314.177 303.163L293.278 284.53C311.399 264.204 323.364 239.142 327.774 212.271C332.183 185.4 328.856 157.828 318.181 132.777L343.94 121.801Z" fill="url(#paint1_linear_0_1348)"/>
<path d="M255.256 32.064C295.18 49.6381 326.907 81.7647 343.98 121.905L318.214 132.864C303.928 99.2771 277.381 72.3956 243.976 57.6908L255.256 32.064Z" fill="url(#paint2_linear_0_1348)"/>
<path d="M213.588 19.7334C228.04 22.0744 242.133 26.2563 255.523 32.1772L244.2 57.785C232.996 52.8308 221.204 49.3316 209.111 47.3728L213.588 19.7334Z" fill="url(#paint3_linear_0_1348)"/>
</g>
<defs>
<linearGradient id="paint0_linear_0_1348" x1="57.0002" y1="404.5" x2="336" y2="-315.5" gradientUnits="userSpaceOnUse">
<stop offset="0.0780589" stop-color="#533E8A"/>
<stop offset="0.644122" stop-color="#CB358E"/>
</linearGradient>
<linearGradient id="paint1_linear_0_1348" x1="419.657" y1="33.9422" x2="28.0866" y2="253.097" gradientUnits="userSpaceOnUse">
<stop stop-color="white"/>
<stop offset="0.075342" stop-color="#FBC960"/>
<stop offset="0.455899" stop-color="#F58875"/>
<stop offset="1" stop-color="#F22F46"/>
</linearGradient>
<linearGradient id="paint2_linear_0_1348" x1="270.968" y1="-42.649" x2="370.958" y2="366.988" gradientUnits="userSpaceOnUse">
<stop offset="0.00833321" stop-color="#CB348E"/>
<stop offset="0.352083" stop-color="#EC3092"/>
<stop offset="0.804559" stop-color="#F22F46"/>
</linearGradient>
<linearGradient id="paint3_linear_0_1348" x1="15.0425" y1="-309.952" x2="37.179" y2="412.288" gradientUnits="userSpaceOnUse">
<stop offset="0.208747" stop-color="#007093"/>
<stop offset="0.251561" stop-color="#11BDF2"/>
<stop offset="1" stop-color="white"/>
</linearGradient>
</defs>
</svg>
