<svg width="1230" height="302" viewBox="0 0 1230 302" fill="none" xmlns="http://www.w3.org/2000/svg">
<path d="M-482.158 677.912C20.3339 1057.78 809.208 1037.67 1279.84 632.987C1750.48 228.309 1724.65 -407.689 1222.16 -787.556C719.667 -1167.42 -69.2078 -1147.31 -539.842 -742.632C-1010.48 -337.954 -984.65 298.045 -482.158 677.912Z" fill="url(#paint0_linear_0_461)"/>
<path d="M-280.472 504.489C85.5089 781.159 660.071 766.509 1002.85 471.769C1345.63 177.029 1326.82 -286.189 960.836 -562.858C594.855 -839.528 20.2925 -824.879 -322.485 -530.139C-665.263 -235.399 -646.453 227.82 -280.472 504.489Z" fill="url(#paint1_linear_0_461)"/>
<path d="M-18.3036 279.062C194.358 439.827 528.219 431.314 727.398 260.049C926.576 88.7843 915.647 -180.379 702.986 -341.143C490.324 -501.908 156.462 -493.396 -42.7161 -322.131C-241.895 -150.866 -230.965 118.297 -18.3036 279.062Z" fill="url(#paint2_linear_0_461)"/>
<defs>
<linearGradient id="paint0_linear_0_461" x1="-1474.34" y1="5958.32" x2="-3026.21" y2="283.283" gradientUnits="userSpaceOnUse">
<stop stop-color="#EC3092"/>
<stop offset="1" stop-color="#001541"/>
</linearGradient>
<linearGradient id="paint1_linear_0_461" x1="-1003.11" y1="4350.39" x2="-2133.38" y2="217.068" gradientUnits="userSpaceOnUse">
<stop stop-color="#EC3092"/>
<stop offset="1" stop-color="#001541"/>
</linearGradient>
<linearGradient id="paint2_linear_0_461" x1="-438.21" y1="2513.8" x2="-1094.98" y2="112.05" gradientUnits="userSpaceOnUse">
<stop stop-color="#EC3092"/>
<stop offset="1" stop-color="#001541"/>
</linearGradient>
</defs>
</svg>
