<svg width="17" height="17" viewBox="0 0 17 17" fill="none" xmlns="http://www.w3.org/2000/svg">
<path fill-rule="evenodd" clip-rule="evenodd" d="M8.31009 0.202637C10.4435 0.202637 12.4492 1.03479 13.9578 2.54576C15.4663 4.05679 16.2971 6.06576 16.2971 8.20264C16.2971 10.3395 15.4663 12.3485 13.9578 13.8595C12.4492 15.3705 10.4435 16.2026 8.31009 16.2026C6.17668 16.2026 4.17094 15.3705 2.66239 13.8595C1.15387 12.3485 0.323059 10.3395 0.323059 8.20264C0.323059 6.06576 1.15387 4.05676 2.66239 2.54576C4.17094 1.03479 6.17665 0.202637 8.31009 0.202637ZM7.66251 10.7677L12.126 6.29689C12.3088 6.11383 12.3088 5.81705 12.126 5.63399C11.9433 5.45092 11.647 5.45092 11.4642 5.63399L7.33161 9.77336L5.15615 7.59439C4.97338 7.41133 4.67705 7.41133 4.49431 7.59439C4.31155 7.77749 4.31155 8.07427 4.49431 8.2573L7.00068 10.7677C7.09206 10.8592 7.21184 10.905 7.33161 10.905C7.45136 10.905 7.57113 10.8592 7.66251 10.7677Z" fill="#00B8F1"/>
</svg>
